<?xml version="1.0" encoding="iso-8859-1"?>
<!-- Generator: Adobe Illustrator 19.0.0, SVG Export Plug-In . SVG Version: 6.00 Build 0)  -->
<svg version="1.1" id="Layer_1" xmlns="http://www.w3.org/2000/svg" xmlns:xlink="http://www.w3.org/1999/xlink" x="0px" y="0px"
	 viewBox="0 0 512 512" style="enable-background:new 0 0 512 512;" xml:space="preserve">
<g>
	<path style="fill:#2C5871;" d="M256,0C114.616,0,0,114.616,0,256s114.616,256,256,256s256-114.616,256-256S397.384,0,256,0L256,0z"
		/>
	<path style="fill:#133142;" d="M512,256c0-13.809-1.126-27.346-3.231-40.561l-0.323-0.323
		c-0.927-1.234-105.994-106.301-107.228-107.228c-2.949-3.932-7.608-6.518-12.902-6.518H123.684c-8.929,0-16.169,7.24-16.169,16.169
		v21.612v233.692v21.612c0,5.294,2.58,9.953,6.518,12.902c0.927,1.234,99.497,99.804,100.731,100.731l0.681,0.681
		C228.654,510.874,242.196,512,256,512C397.384,512,512,397.384,512,256L512,256z"/>
	<path style="fill:#0086BA;" d="M388.316,122.982H123.684c-8.929,0-16.169,7.24-16.169,16.169v255.304
		c0,8.929,7.24,16.169,16.169,16.169h264.637c8.929,0,16.169-7.24,16.169-16.169V139.151
		C404.485,130.222,397.245,122.982,388.316,122.982L388.316,122.982z"/>
	<path style="fill:#14B0BF;" d="M388.316,101.376H123.684c-8.929,0-16.169,7.24-16.169,16.169v255.304
		c0,8.929,7.24,16.169,16.169,16.169h264.637c8.929,0,16.169-7.24,16.169-16.169V117.545
		C404.485,108.616,397.245,101.376,388.316,101.376L388.316,101.376z"/>
	<path style="fill:#2C5871;" d="M368.727,245.197c0,64.707-52.454,117.156-117.156,117.156
		c-64.707,0-117.156-52.454-117.156-117.156c0-64.707,52.454-117.156,117.156-117.156
		C316.273,128.036,368.727,180.49,368.727,245.197L368.727,245.197z"/>
	<path style="fill:#0E8594;" d="M251.571,128.036L251.571,128.036c64.707,0,117.156,52.454,117.156,117.156l0,0
		C368.727,180.49,316.273,128.036,251.571,128.036L251.571,128.036z"/>
	<path style="fill:#204357;" d="M251.571,128.036v234.317c64.707,0,117.156-52.454,117.156-117.156
		C368.727,180.49,316.273,128.036,251.571,128.036L251.571,128.036z"/>
	<circle style="fill:#FFF466;" cx="251.546" cy="245.197" r="50.826"/>
	<path style="fill:#FDC00F;" d="M251.571,194.371v101.652c28.068,0,50.826-22.753,50.826-50.826
		C302.397,217.124,279.639,194.371,251.571,194.371z"/>
	<circle style="fill:#0F303F;" cx="251.546" cy="245.197" r="3.717"/>
	<path style="fill:#0F303F;" d="M374.845,149.499c-8.146,0-14.771-6.625-14.771-14.771s6.625-14.771,14.771-14.771
		s14.771,6.625,14.771,14.771S382.991,149.499,374.845,149.499z M374.845,125.343c-5.171,0-9.385,4.209-9.385,9.385
		c0,5.176,4.209,9.38,9.385,9.38c5.171,0,9.38-4.209,9.38-9.38C384.225,129.556,380.017,125.343,374.845,125.343z"/>
	<rect x="361.37" y="354.099" style="fill:#FC611F;" width="26.947" height="16.527"/>
	<path style="fill:#0F303F;" d="M134.415,373.309c-8.146,0-14.771-6.625-14.771-14.771s6.625-14.771,14.771-14.771
		s14.771,6.625,14.771,14.771S142.556,373.309,134.415,373.309z M134.415,349.158c-5.171,0-9.385,4.209-9.385,9.38
		s4.209,9.38,9.385,9.38c5.171,0,9.38-4.209,9.38-9.38S139.587,349.158,134.415,349.158z"/>
	<rect x="120.94" y="122.65" style="fill:#FC611F;" width="26.947" height="16.527"/>
	<path style="fill:#2C5871;" d="M251.566,315.464c-38.743,0-70.267-31.519-70.267-70.267s31.519-70.267,70.267-70.267
		s70.267,31.519,70.267,70.267C321.838,283.94,290.314,315.464,251.566,315.464z M251.566,178.97
		c-36.516,0-66.222,29.706-66.222,66.227c0,36.516,29.706,66.227,66.222,66.227c36.521,0,66.227-29.706,66.227-66.227
		C317.793,208.676,288.087,178.97,251.566,178.97z"/>
	<path style="fill:#2C5871;" d="M251.566,332.58c-48.184,0-87.388-39.204-87.388-87.388s39.204-87.388,87.388-87.388
		s87.388,39.204,87.388,87.388C338.954,293.381,299.75,332.58,251.566,332.58z M251.566,161.848
		c-45.957,0-83.343,37.391-83.343,83.343c0,45.957,37.391,83.343,83.343,83.343c45.957,0,83.343-37.391,83.343-83.343
		C334.915,199.24,297.523,161.848,251.566,161.848z"/>
	<path style="fill:#2C5871;" d="M251.566,350.188c-57.897,0-104.996-47.099-104.996-104.996s47.099-104.996,104.996-104.996
		s104.996,47.099,104.996,104.996S309.463,350.188,251.566,350.188z M251.566,144.241c-55.665,0-100.951,45.286-100.951,100.951
		s45.286,100.951,100.951,100.951s100.951-45.286,100.951-100.951S307.236,144.241,251.566,144.241z"/>
</g>
<g>
</g>
<g>
</g>
<g>
</g>
<g>
</g>
<g>
</g>
<g>
</g>
<g>
</g>
<g>
</g>
<g>
</g>
<g>
</g>
<g>
</g>
<g>
</g>
<g>
</g>
<g>
</g>
<g>
</g>
</svg>
